STARTFONT 2.1
COMMENT 
COMMENT Copyright (C) 2012, 2013 Uwe Waldmann
COMMENT 
COMMENT Permission is hereby granted, free of charge, to any person obtaining
COMMENT a copy of this font software and associated files (the "Software"),
COMMENT to deal in the Software without restriction, including without
COMMENT limitation the rights to use, copy, modify, merge, publish,
COMMENT distribute, embed, sublicense, and/or sell copies of the Software,
COMMENT and to permit persons to whom the Software is furnished to do so,
COMMENT subject to the following conditions:
COMMENT 
COMMENT (1) The above copyright notice, this permission notice, and the
COMMENT     disclaimer below shall be included in all copies or substantial
COMMENT     portions of the Software.
COMMENT 
COMMENT (2) If the design of any glyphs in the fonts that are contained in the
COMMENT     Software or generated during the installation process is modified
COMMENT     or if additional glyphs are added to the fonts, the fonts
COMMENT     must be renamed. The new names may not contain the word "UW",
COMMENT     irrespective of capitalisation; the new names may contain the word
COMMENT     "ttyp0", irrespective of capitalisation, only if preceded by a
COMMENT     foundry name different from "UW".
COMMENT 
COMMENT THE SOFTWARE IS PROVIDED "AS IS", WITHOUT WARRANTY OF ANY KIND, EXPRESS
COMMENT OR IMPLIED, INCLUDING BUT NOT LIMITED TO THE WARRANTIES OF
COMMENT MERCHANTABILITY, FITNESS FOR A PARTICULAR PURPOSE AND NONINFRINGEMENT.
COMMENT IN NO EVENT SHALL THE AUTHORS OR COPYRIGHT HOLDERS BE LIABLE FOR ANY
COMMENT CLAIM, DAMAGES OR OTHER LIABILITY, WHETHER IN AN ACTION OF CONTRACT,
COMMENT TORT OR OTHERWISE, ARISING FROM, OUT OF OR IN CONNECTION WITH THE
COMMENT SOFTWARE OR THE USE OR OTHER DEALINGS IN THE SOFTWARE.
COMMENT 
FONT -UW-Ttyp0-Medium-R-Normal--15-140-75-75-C-80-UW-Fontspecific
SIZE 15 75 75
FONTBOUNDINGBOX 8 15 0 -3
STARTPROPERTIES 19
FONTNAME_REGISTRY ""
FOUNDRY "UW"
FAMILY_NAME "Ttyp0"

STARTCHAR LtCapALdot
ENCODING 735
SWIDTH 960 0
DWIDTH 8 0
BBX 8 15 0 -3
BITMAP
00
00
18
18
24
24
42
42
7e
42
42
42
00
08
08
ENDCHAR
STARTCHAR LtCapBLdot
ENCODING 736
SWIDTH 960 0
DWIDTH 8 0
BBX 8 15 0 -3
BITMAP
00
00
7c
42
42
42
7c
42
42
42
42
7c
00
10
10
ENDCHAR
STARTCHAR LtCapCLdot
ENCODING 737
SWIDTH 960 0
DWIDTH 8 0
BBX 8 15 0 -3
BITMAP
00
00
1c
22
40
40
40
40
40
40
22
1c
00
08
08
ENDCHAR
STARTCHAR LtCapDLdot
ENCODING 738
SWIDTH 960 0
DWIDTH 8 0
BBX 8 15 0 -3
BITMAP
00
00
78
44
42
42
42
42
42
42
44
78
00
10
10
ENDCHAR
STARTCHAR LtCapELdot
ENCODING 739
SWIDTH 960 0
DWIDTH 8 0
BBX 8 15 0 -3
BITMAP
00
00
7e
40
40
40
78
40
40
40
40
7e
00
10
10
ENDCHAR
STARTCHAR LtCapHLdot
ENCODING 740
SWIDTH 960 0
DWIDTH 8 0
BBX 8 15 0 -3
BITMAP
00
00
42
42
42
42
7e
42
42
42
42
42
00
10
10
ENDCHAR
STARTCHAR LtCapILdot
ENCODING 741
SWIDTH 960 0
DWIDTH 8 0
BBX 8 15 0 -3
BITMAP
00
00
3e
08
08
08
08
08
08
08
08
3e
00
08
08
ENDCHAR
STARTCHAR LtCapKLdot
ENCODING 742
SWIDTH 960 0
DWIDTH 8 0
BBX 8 15 0 -3
BITMAP
00
00
42
42
44
48
50
70
48
44
42
42
00
10
10
ENDCHAR
STARTCHAR LtCapLLdot
ENCODING 743
SWIDTH 960 0
DWIDTH 8 0
BBX 8 15 0 -3
BITMAP
00
00
40
40
40
40
40
40
40
40
40
7e
00
10
10
ENDCHAR
STARTCHAR LtCapMLdot
ENCODING 744
SWIDTH 960 0
DWIDTH 8 0
BBX 8 15 0 -3
BITMAP
00
00
41
41
63
55
55
49
49
41
41
41
00
08
08
ENDCHAR
STARTCHAR LtCapNLdot
ENCODING 745
SWIDTH 960 0
DWIDTH 8 0
BBX 8 15 0 -3
BITMAP
00
00
42
42
62
52
52
4a
4a
46
42
42
00
10
10
ENDCHAR
STARTCHAR LtCapOLdot
ENCODING 746
SWIDTH 960 0
DWIDTH 8 0
BBX 8 15 0 -3
BITMAP
00
00
3c
42
42
42
42
42
42
42
42
3c
00
10
10
ENDCHAR
STARTCHAR LtCapPLdot
ENCODING 747
SWIDTH 960 0
DWIDTH 8 0
BBX 8 15 0 -3
BITMAP
00
00
7c
42
42
42
42
7c
40
40
40
40
00
40
40
ENDCHAR
STARTCHAR LtCapQLdot
ENCODING 748
SWIDTH 960 0
DWIDTH 8 0
BBX 8 15 0 -3
BITMAP
00
00
3c
42
42
42
42
42
42
4a
46
3c
03
08
08
ENDCHAR
STARTCHAR LtCapRLdot
ENCODING 749
SWIDTH 960 0
DWIDTH 8 0
BBX 8 15 0 -3
BITMAP
00
00
7c
42
42
42
7c
48
44
44
42
42
00
10
10
ENDCHAR
STARTCHAR LtCapSLdot
ENCODING 750
SWIDTH 960 0
DWIDTH 8 0
BBX 8 15 0 -3
BITMAP
00
00
3c
42
40
40
30
0c
02
02
42
3c
00
10
10
ENDCHAR
STARTCHAR LtCapTLdot
ENCODING 751
SWIDTH 960 0
DWIDTH 8 0
BBX 8 15 0 -3
BITMAP
00
00
7f
08
08
08
08
08
08
08
08
08
00
08
08
ENDCHAR
STARTCHAR LtCapULdot
ENCODING 752
SWIDTH 960 0
DWIDTH 8 0
BBX 8 15 0 -3
BITMAP
00
00
42
42
42
42
42
42
42
42
42
3c
00
10
10
ENDCHAR
STARTCHAR LtCapVLdot
ENCODING 753
SWIDTH 960 0
DWIDTH 8 0
BBX 8 15 0 -3
BITMAP
00
00
41
41
42
22
22
24
14
14
18
08
00
08
08
ENDCHAR
STARTCHAR LtCapWLdot
ENCODING 754
SWIDTH 960 0
DWIDTH 8 0
BBX 8 15 0 -3
BITMAP
00
00
41
41
49
49
49
55
55
22
22
22
00
08
08
ENDCHAR
STARTCHAR LtCapYLdot
ENCODING 755
SWIDTH 960 0
DWIDTH 8 0
BBX 8 15 0 -3
BITMAP
00
00
41
22
22
14
14
08
08
08
08
08
00
08
08
ENDCHAR
STARTCHAR LtCapZLdot
ENCODING 756
SWIDTH 960 0
DWIDTH 8 0
BBX 8 15 0 -3
BITMAP
00
00
7e
02
04
08
08
10
20
20
40
7e
00
10
10
ENDCHAR
STARTCHAR LtSmlALdot
ENCODING 757
SWIDTH 960 0
DWIDTH 8 0
BBX 8 15 0 -3
BITMAP
00
00
00
00
00
3c
02
02
3e
42
46
3a
00
10
10
ENDCHAR
STARTCHAR LtSmlBLdot
ENCODING 758
SWIDTH 960 0
DWIDTH 8 0
BBX 8 15 0 -3
BITMAP
00
00
40
40
40
5c
62
42
42
42
62
5c
00
08
08
ENDCHAR
STARTCHAR LtSmlCLdot
ENCODING 759
SWIDTH 960 0
DWIDTH 8 0
BBX 8 15 0 -3
BITMAP
00
00
00
00
00
3c
42
40
40
40
42
3c
00
08
08
ENDCHAR
STARTCHAR LtSmlDLdot
ENCODING 760
SWIDTH 960 0
DWIDTH 8 0
BBX 8 15 0 -3
BITMAP
00
00
02
02
02
3a
46
42
42
42
46
3a
00
10
10
ENDCHAR
STARTCHAR LtSmlELdot
ENCODING 761
SWIDTH 960 0
DWIDTH 8 0
BBX 8 15 0 -3
BITMAP
00
00
00
00
00
3c
42
42
7e
40
40
3c
00
10
10
ENDCHAR
STARTCHAR LtSmlHLdot
ENCODING 762
SWIDTH 960 0
DWIDTH 8 0
BBX 8 15 0 -3
BITMAP
00
00
40
40
40
5c
62
42
42
42
42
42
00
10
10
ENDCHAR
STARTCHAR LtSmlILdot
ENCODING 763
SWIDTH 960 0
DWIDTH 8 0
BBX 8 15 0 -3
BITMAP
00
00
08
08
00
18
08
08
08
08
08
3e
00
08
08
ENDCHAR
STARTCHAR LtSmlKLdot
ENCODING 764
SWIDTH 960 0
DWIDTH 8 0
BBX 8 15 0 -3
BITMAP
00
00
40
40
40
42
44
48
70
48
44
42
00
10
10
ENDCHAR
STARTCHAR LtSmlLLdot
ENCODING 765
SWIDTH 960 0
DWIDTH 8 0
BBX 8 15 0 -3
BITMAP
00
00
18
08
08
08
08
08
08
08
08
3e
00
08
08
ENDCHAR
STARTCHAR LtSmlMLdot
ENCODING 766
SWIDTH 960 0
DWIDTH 8 0
BBX 8 15 0 -3
BITMAP
00
00
00
00
00
76
49
49
49
49
49
49
00
08
08
ENDCHAR
STARTCHAR LtSmlNLdot
ENCODING 767
SWIDTH 960 0
DWIDTH 8 0
BBX 8 15 0 -3
BITMAP
00
00
00
00
00
5c
62
42
42
42
42
42
00
10
10
ENDCHAR
STARTCHAR LtSmlOLdot
ENCODING 768
SWIDTH 960 0
DWIDTH 8 0
BBX 8 15 0 -3
BITMAP
00
00
00
00
00
3c
42
42
42
42
42
3c
00
10
10
ENDCHAR
STARTCHAR LtSmlPLdot
ENCODING 769
SWIDTH 960 0
DWIDTH 8 0
BBX 8 15 0 -3
BITMAP
00
00
00
00
00
5c
62
42
42
42
62
5c
40
48
48
ENDCHAR
STARTCHAR LtSmlQLdot
ENCODING 770
SWIDTH 960 0
DWIDTH 8 0
BBX 8 15 0 -3
BITMAP
00
00
00
00
00
3a
46
42
42
42
46
3a
02
12
12
ENDCHAR
STARTCHAR LtSmlRLdot
ENCODING 771
SWIDTH 960 0
DWIDTH 8 0
BBX 8 15 0 -3
BITMAP
00
00
00
00
00
6e
32
20
20
20
20
20
00
20
20
ENDCHAR
STARTCHAR LtSmlSLdot
ENCODING 772
SWIDTH 960 0
DWIDTH 8 0
BBX 8 15 0 -3
BITMAP
00
00
00
00
00
3c
42
40
3c
02
42
3c
00
10
10
ENDCHAR
STARTCHAR LtSmlTLdot
ENCODING 773
SWIDTH 960 0
DWIDTH 8 0
BBX 8 15 0 -3
BITMAP
00
00
00
10
10
7c
10
10
10
10
12
0c
00
08
08
ENDCHAR
STARTCHAR LtSmlULdot
ENCODING 774
SWIDTH 960 0
DWIDTH 8 0
BBX 8 15 0 -3
BITMAP
00
00
00
00
00
42
42
42
42
42
46
3a
00
10
10
ENDCHAR
STARTCHAR LtSmlVLdot
ENCODING 775
SWIDTH 960 0
DWIDTH 8 0
BBX 8 15 0 -3
BITMAP
00
00
00
00
00
42
42
42
24
24
18
18
00
08
08
ENDCHAR
STARTCHAR LtSmlWLdot
ENCODING 776
SWIDTH 960 0
DWIDTH 8 0
BBX 8 15 0 -3
BITMAP
00
00
00
00
00
41
49
49
49
36
22
22
00
08
08
ENDCHAR
STARTCHAR LtSmlYLdot
ENCODING 777
SWIDTH 960 0
DWIDTH 8 0
BBX 8 15 0 -3
BITMAP
00
00
00
00
00
42
42
22
24
14
14
08
08
52
22
ENDCHAR
STARTCHAR LtSmlZLdot
ENCODING 778
SWIDTH 960 0
DWIDTH 8 0
BBX 8 15 0 -3
BITMAP
00
00
00
00
00
7e
04
08
10
20
40
7e
00
10
10
ENDCHAR
STARTCHAR LtCapOHornLdot
ENCODING 779
SWIDTH 960 0
DWIDTH 8 0
BBX 8 15 0 -3
BITMAP
03
01
3e
42
42
42
42
42
42
42
42
3c
00
10
10
ENDCHAR
STARTCHAR LtCapUHornLdot
ENCODING 780
SWIDTH 960 0
DWIDTH 8 0
BBX 8 15 0 -3
BITMAP
03
01
42
42
42
42
42
42
42
42
42
3c
00
10
10
ENDCHAR
STARTCHAR LtSmlOHornLdot
ENCODING 781
SWIDTH 960 0
DWIDTH 8 0
BBX 8 15 0 -3
BITMAP
00
00
00
03
01
3e
42
42
42
42
42
3c
00
10
10
ENDCHAR
STARTCHAR LtSmlUHornLdot
ENCODING 782
SWIDTH 960 0
DWIDTH 8 0
BBX 8 15 0 -3
BITMAP
00
00
00
03
01
42
42
42
42
42
46
3a
00
10
10
ENDCHAR
STARTCHAR LtCapSDotLdot
ENCODING 783
SWIDTH 960 0
DWIDTH 8 0
BBX 8 15 0 -3
BITMAP
08
08
00
3c
42
40
20
18
04
02
42
3c
00
10
10
ENDCHAR
STARTCHAR LtSmlSDotLdot
ENCODING 784
SWIDTH 960 0
DWIDTH 8 0
BBX 8 15 0 -3
BITMAP
00
00
08
08
00
3c
42
40
3c
02
42
3c
00
10
10
ENDCHAR
STARTCHAR LtCapLMacronLdot
ENCODING 785
SWIDTH 960 0
DWIDTH 8 0
BBX 8 15 0 -3
BITMAP
3c
00
40
40
40
40
40
40
40
40
40
7e
00
10
10
ENDCHAR
STARTCHAR LtCapRMacronLdot
ENCODING 786
SWIDTH 960 0
DWIDTH 8 0
BBX 8 15 0 -3
BITMAP
3c
00
7c
42
42
42
7c
48
44
44
42
42
00
10
10
ENDCHAR
STARTCHAR LtSmlLMacronLdot
ENCODING 787
SWIDTH 960 0
DWIDTH 8 0
BBX 8 15 0 -3
BITMAP
3c
00
18
08
08
08
08
08
08
08
08
3e
00
08
08
ENDCHAR
STARTCHAR LtSmlRMacronLdot
ENCODING 788
SWIDTH 960 0
DWIDTH 8 0
BBX 8 15 0 -3
BITMAP
00
00
3c
00
00
6e
32
20
20
20
20
20
00
20
20
ENDCHAR
STARTCHAR LtCapEAcuteLdot
ENCODING 789
SWIDTH 960 0
DWIDTH 8 0
BBX 8 15 0 -3
BITMAP
04
18
00
7e
40
40
40
78
40
40
40
7e
00
10
10
ENDCHAR
STARTCHAR LtCapOAcuteLdot
ENCODING 790
SWIDTH 960 0
DWIDTH 8 0
BBX 8 15 0 -3
BITMAP
04
18
00
3c
42
42
42
42
42
42
42
3c
00
10
10
ENDCHAR
STARTCHAR LtCapRAcuteLdot
ENCODING 791
SWIDTH 960 0
DWIDTH 8 0
BBX 8 15 0 -3
BITMAP
04
18
00
7c
42
42
42
7c
48
44
42
42
00
10
10
ENDCHAR
STARTCHAR LtSmlEAcuteLdot
ENCODING 792
SWIDTH 960 0
DWIDTH 8 0
BBX 8 15 0 -3
BITMAP
00
08
08
10
00
3c
42
42
7e
40
40
3c
00
10
10
ENDCHAR
STARTCHAR LtSmlOAcuteLdot
ENCODING 793
SWIDTH 960 0
DWIDTH 8 0
BBX 8 15 0 -3
BITMAP
00
08
08
10
00
3c
42
42
42
42
42
3c
00
10
10
ENDCHAR
STARTCHAR LtSmlRAcuteLdot
ENCODING 794
SWIDTH 960 0
DWIDTH 8 0
BBX 8 15 0 -3
BITMAP
00
08
08
10
00
6e
32
20
20
20
20
20
00
20
20
ENDCHAR
STARTCHAR LtSmlRMacronAcuteLdot
ENCODING 795
SWIDTH 960 0
DWIDTH 8 0
BBX 8 15 0 -3
BITMAP
04
18
00
3c
00
6e
32
20
20
20
20
20
00
20
20
ENDCHAR
STARTCHAR LtCapEGraveLdot
ENCODING 796
SWIDTH 960 0
DWIDTH 8 0
BBX 8 15 0 -3
BITMAP
20
18
00
7e
40
40
40
78
40
40
40
7e
00
10
10
ENDCHAR
STARTCHAR LtCapOGraveLdot
ENCODING 797
SWIDTH 960 0
DWIDTH 8 0
BBX 8 15 0 -3
BITMAP
20
18
00
3c
42
42
42
42
42
42
42
3c
00
10
10
ENDCHAR
STARTCHAR LtCapRGraveLdot
ENCODING 798
SWIDTH 960 0
DWIDTH 8 0
BBX 8 15 0 -3
BITMAP
20
18
00
7c
42
42
42
7c
48
44
42
42
00
10
10
ENDCHAR
STARTCHAR LtSmlEGraveLdot
ENCODING 799
SWIDTH 960 0
DWIDTH 8 0
BBX 8 15 0 -3
BITMAP
00
10
10
08
00
3c
42
42
7e
40
40
3c
00
10
10
ENDCHAR
STARTCHAR LtSmlOGraveLdot
ENCODING 800
SWIDTH 960 0
DWIDTH 8 0
BBX 8 15 0 -3
BITMAP
00
10
10
08
00
3c
42
42
42
42
42
3c
00
10
10
ENDCHAR
STARTCHAR LtSmlRGraveLdot
ENCODING 801
SWIDTH 960 0
DWIDTH 8 0
BBX 8 15 0 -3
BITMAP
00
10
10
08
00
6e
32
20
20
20
20
20
00
20
20
ENDCHAR
STARTCHAR LtCapACircumLdot
ENCODING 802
SWIDTH 960 0
DWIDTH 8 0
BBX 8 15 0 -3
BITMAP
18
24
00
18
18
24
24
42
7e
42
42
42
00
08
08
ENDCHAR
STARTCHAR LtCapECircumLdot
ENCODING 803
SWIDTH 960 0
DWIDTH 8 0
BBX 8 15 0 -3
BITMAP
18
24
00
7e
40
40
40
78
40
40
40
7e
00
10
10
ENDCHAR
STARTCHAR LtCapOCircumLdot
ENCODING 804
SWIDTH 960 0
DWIDTH 8 0
BBX 8 15 0 -3
BITMAP
18
24
00
3c
42
42
42
42
42
42
42
3c
00
10
10
ENDCHAR
STARTCHAR LtSmlACircumLdot
ENCODING 805
SWIDTH 960 0
DWIDTH 8 0
BBX 8 15 0 -3
BITMAP
00
00
18
24
00
3c
02
02
3e
42
46
3a
00
10
10
ENDCHAR
STARTCHAR LtSmlECircumLdot
ENCODING 806
SWIDTH 960 0
DWIDTH 8 0
BBX 8 15 0 -3
BITMAP
00
00
18
24
00
3c
42
42
7e
40
40
3c
00
10
10
ENDCHAR
STARTCHAR LtSmlOCircumLdot
ENCODING 807
SWIDTH 960 0
DWIDTH 8 0
BBX 8 15 0 -3
BITMAP
00
00
18
24
00
3c
42
42
42
42
42
3c
00
10
10
ENDCHAR
STARTCHAR LtCapCCaronLdot
ENCODING 808
SWIDTH 960 0
DWIDTH 8 0
BBX 8 15 0 -3
BITMAP
12
0c
00
1c
22
40
40
40
40
40
22
1c
00
08
08
ENDCHAR
STARTCHAR LtSmlCCaronLdot
ENCODING 809
SWIDTH 960 0
DWIDTH 8 0
BBX 8 15 0 -3
BITMAP
00
00
24
18
00
3c
42
40
40
40
42
3c
00
08
08
ENDCHAR
STARTCHAR LtCapABreveLdot
ENCODING 810
SWIDTH 960 0
DWIDTH 8 0
BBX 8 15 0 -3
BITMAP
24
18
00
18
18
24
24
42
7e
42
42
42
00
08
08
ENDCHAR
STARTCHAR LtSmlABreveLdot
ENCODING 811
SWIDTH 960 0
DWIDTH 8 0
BBX 8 15 0 -3
BITMAP
00
00
24
18
00
3c
02
02
3e
42
46
3a
00
10
10
ENDCHAR
STARTCHAR LtSmlRLvline
ENCODING 815
SWIDTH 960 0
DWIDTH 8 0
BBX 8 15 0 -3
BITMAP
00
00
00
00
00
6e
32
20
20
20
20
20
10
10
10
ENDCHAR
STARTCHAR LtCapALring
ENCODING 817
SWIDTH 960 0
DWIDTH 8 0
BBX 8 15 0 -3
BITMAP
00
00
18
18
24
24
42
42
7e
42
42
42
08
14
08
ENDCHAR
STARTCHAR LtCapRLring
ENCODING 818
SWIDTH 960 0
DWIDTH 8 0
BBX 8 15 0 -3
BITMAP
00
00
7c
42
42
42
7c
48
44
44
42
42
10
28
10
ENDCHAR
STARTCHAR LtSmlALring
ENCODING 819
SWIDTH 960 0
DWIDTH 8 0
BBX 8 15 0 -3
BITMAP
00
00
00
00
00
3c
02
02
3e
42
46
3a
08
14
08
ENDCHAR
STARTCHAR LtSmlLLring
ENCODING 820
SWIDTH 960 0
DWIDTH 8 0
BBX 8 15 0 -3
BITMAP
00
00
18
08
08
08
08
08
08
08
08
3e
08
14
08
ENDCHAR
STARTCHAR LtSmlRLring
ENCODING 821
SWIDTH 960 0
DWIDTH 8 0
BBX 8 15 0 -3
BITMAP
00
00
00
00
00
6e
32
20
20
20
20
20
20
50
20
ENDCHAR
STARTCHAR LtSmlLMacronLring
ENCODING 822
SWIDTH 960 0
DWIDTH 8 0
BBX 8 15 0 -3
BITMAP
3c
00
18
08
08
08
08
08
08
08
08
3e
08
14
08
ENDCHAR
STARTCHAR LtSmlRMacronLring
ENCODING 823
SWIDTH 960 0
DWIDTH 8 0
BBX 8 15 0 -3
BITMAP
00
00
3c
00
00
6e
32
20
20
20
20
20
20
50
20
ENDCHAR
STARTCHAR LtSmlRAcuteLring
ENCODING 824
SWIDTH 960 0
DWIDTH 8 0
BBX 8 15 0 -3
BITMAP
00
08
08
10
00
6e
32
20
20
20
20
20
20
50
20
ENDCHAR
STARTCHAR LtSmlRMacronAcuteLring
ENCODING 825
SWIDTH 960 0
DWIDTH 8 0
BBX 8 15 0 -3
BITMAP
04
18
00
3c
00
6e
32
20
20
20
20
20
20
50
20
ENDCHAR
STARTCHAR LtSmlRGraveLring
ENCODING 826
SWIDTH 960 0
DWIDTH 8 0
BBX 8 15 0 -3
BITMAP
00
10
10
08
00
6e
32
20
20
20
20
20
20
50
20
ENDCHAR
STARTCHAR LtCapULdrss
ENCODING 827
SWIDTH 960 0
DWIDTH 8 0
BBX 8 15 0 -3
BITMAP
00
00
42
42
42
42
42
42
42
42
42
3c
00
24
24
ENDCHAR
STARTCHAR LtSmlULdrss
ENCODING 828
SWIDTH 960 0
DWIDTH 8 0
BBX 8 15 0 -3
BITMAP
00
00
00
00
00
42
42
42
42
42
46
3a
00
24
24
ENDCHAR
STARTCHAR LtCapBLmacron
ENCODING 829
SWIDTH 960 0
DWIDTH 8 0
BBX 8 15 0 -3
BITMAP
00
00
7c
42
42
42
7c
42
42
42
42
7c
00
00
3c
ENDCHAR
STARTCHAR LtCapDLmacron
ENCODING 830
SWIDTH 960 0
DWIDTH 8 0
BBX 8 15 0 -3
BITMAP
00
00
78
44
42
42
42
42
42
42
44
78
00
00
7c
ENDCHAR
STARTCHAR LtCapELmacron
ENCODING 831
SWIDTH 960 0
DWIDTH 8 0
BBX 8 15 0 -3
BITMAP
00
00
7e
40
40
40
78
40
40
40
40
7e
00
00
3c
ENDCHAR
STARTCHAR LtCapHLmacron
ENCODING 832
SWIDTH 960 0
DWIDTH 8 0
BBX 8 15 0 -3
BITMAP
00
00
42
42
42
42
7e
42
42
42
42
42
00
00
3c
ENDCHAR
STARTCHAR LtCapKLmacron
ENCODING 833
SWIDTH 960 0
DWIDTH 8 0
BBX 8 15 0 -3
BITMAP
00
00
42
42
44
48
50
70
48
44
42
42
00
00
3c
ENDCHAR
STARTCHAR LtCapLLmacron
ENCODING 834
SWIDTH 960 0
DWIDTH 8 0
BBX 8 15 0 -3
BITMAP
00
00
40
40
40
40
40
40
40
40
40
7e
00
00
3c
ENDCHAR
STARTCHAR LtCapNLmacron
ENCODING 835
SWIDTH 960 0
DWIDTH 8 0
BBX 8 15 0 -3
BITMAP
00
00
42
42
62
52
52
4a
4a
46
42
42
00
00
3c
ENDCHAR
STARTCHAR LtCapOLmacron
ENCODING 836
SWIDTH 960 0
DWIDTH 8 0
BBX 8 15 0 -3
BITMAP
00
00
3c
42
42
42
42
42
42
42
42
3c
00
00
3c
ENDCHAR
STARTCHAR LtCapRLmacron
ENCODING 837
SWIDTH 960 0
DWIDTH 8 0
BBX 8 15 0 -3
BITMAP
00
00
7c
42
42
42
7c
48
44
44
42
42
00
00
3c
ENDCHAR
STARTCHAR LtCapTLmacron
ENCODING 838
SWIDTH 960 0
DWIDTH 8 0
BBX 8 15 0 -3
BITMAP
00
00
7f
08
08
08
08
08
08
08
08
08
00
00
3e
ENDCHAR
STARTCHAR LtCapZLmacron
ENCODING 839
SWIDTH 960 0
DWIDTH 8 0
BBX 8 15 0 -3
BITMAP
00
00
7e
02
04
08
08
10
20
20
40
7e
00
00
3c
ENDCHAR
STARTCHAR LtSmlBLmacron
ENCODING 840
SWIDTH 960 0
DWIDTH 8 0
BBX 8 15 0 -3
BITMAP
00
00
40
40
40
5c
62
42
42
42
62
5c
00
00
3c
ENDCHAR
STARTCHAR LtSmlDLmacron
ENCODING 841
SWIDTH 960 0
DWIDTH 8 0
BBX 8 15 0 -3
BITMAP
00
00
02
02
02
3a
46
42
42
42
46
3a
00
00
3c
ENDCHAR
STARTCHAR LtSmlELmacron
ENCODING 842
SWIDTH 960 0
DWIDTH 8 0
BBX 8 15 0 -3
BITMAP
00
00
00
00
00
3c
42
42
7e
40
40
3c
00
00
3c
ENDCHAR
STARTCHAR LtSmlHLmacron
ENCODING 843
SWIDTH 960 0
DWIDTH 8 0
BBX 8 15 0 -3
BITMAP
00
00
40
40
40
5c
62
42
42
42
42
42
00
00
3c
ENDCHAR
STARTCHAR LtSmlKLmacron
ENCODING 844
SWIDTH 960 0
DWIDTH 8 0
BBX 8 15 0 -3
BITMAP
00
00
40
40
40
42
44
48
70
48
44
42
00
00
3c
ENDCHAR
STARTCHAR LtSmlLLmacron
ENCODING 845
SWIDTH 960 0
DWIDTH 8 0
BBX 8 15 0 -3
BITMAP
00
00
18
08
08
08
08
08
08
08
08
3e
00
00
3c
ENDCHAR
STARTCHAR LtSmlNLmacron
ENCODING 846
SWIDTH 960 0
DWIDTH 8 0
BBX 8 15 0 -3
BITMAP
00
00
00
00
00
5c
62
42
42
42
42
42
00
00
3c
ENDCHAR
STARTCHAR LtSmlOLmacron
ENCODING 847
SWIDTH 960 0
DWIDTH 8 0
BBX 8 15 0 -3
BITMAP
00
00
00
00
00
3c
42
42
42
42
42
3c
00
00
3c
ENDCHAR
STARTCHAR LtSmlRLmacron
ENCODING 848
SWIDTH 960 0
DWIDTH 8 0
BBX 8 15 0 -3
BITMAP
00
00
00
00
00
6e
32
20
20
20
20
20
00
00
3c
ENDCHAR
STARTCHAR LtSmlTLmacron
ENCODING 849
SWIDTH 960 0
DWIDTH 8 0
BBX 8 15 0 -3
BITMAP
00
00
00
10
10
7c
10
10
10
10
12
0c
00
00
1e
ENDCHAR
STARTCHAR LtSmlZLmacron
ENCODING 850
SWIDTH 960 0
DWIDTH 8 0
BBX 8 15 0 -3
BITMAP
00
00
00
00
00
7e
04
08
10
20
40
7e
00
00
3c
ENDCHAR
STARTCHAR LtCapGHLmacron
ENCODING 851
SWIDTH 960 0
DWIDTH 8 0
BBX 8 15 0 -3
BITMAP
00
00
35
45
45
45
47
55
55
55
55
35
00
00
3e
ENDCHAR
STARTCHAR LtCapKHLmacron
ENCODING 852
SWIDTH 960 0
DWIDTH 8 0
BBX 8 15 0 -3
BITMAP
00
00
55
55
55
55
67
65
55
55
55
55
00
00
3e
ENDCHAR
STARTCHAR LtMixGHLmacron
ENCODING 853
SWIDTH 960 0
DWIDTH 8 0
BBX 8 15 0 -3
BITMAP
00
00
34
44
44
47
45
55
55
55
55
35
00
00
3e
ENDCHAR
STARTCHAR LtMixKHLmacron
ENCODING 854
SWIDTH 960 0
DWIDTH 8 0
BBX 8 15 0 -3
BITMAP
00
00
54
54
54
57
65
65
55
55
55
55
00
00
3e
ENDCHAR
STARTCHAR LtSmlGHLmacron
ENCODING 855
SWIDTH 960 0
DWIDTH 8 0
BBX 8 15 0 -3
BITMAP
00
00
04
04
04
27
55
55
55
25
45
35
48
78
3e
ENDCHAR
STARTCHAR LtSmlKHLmacron
ENCODING 856
SWIDTH 960 0
DWIDTH 8 0
BBX 8 15 0 -3
BITMAP
00
00
44
44
44
57
55
65
65
55
55
55
00
00
3e
ENDCHAR
STARTCHAR LtCapDLcircum
ENCODING 857
SWIDTH 960 0
DWIDTH 8 0
BBX 8 15 0 -3
BITMAP
00
00
78
44
42
42
42
42
42
42
44
78
00
18
24
ENDCHAR
STARTCHAR LtCapELcircum
ENCODING 858
SWIDTH 960 0
DWIDTH 8 0
BBX 8 15 0 -3
BITMAP
00
00
7e
40
40
40
78
40
40
40
40
7e
00
18
24
ENDCHAR
STARTCHAR LtCapLLcircum
ENCODING 859
SWIDTH 960 0
DWIDTH 8 0
BBX 8 15 0 -3
BITMAP
00
00
40
40
40
40
40
40
40
40
40
7e
00
18
24
ENDCHAR
STARTCHAR LtCapNLcircum
ENCODING 860
SWIDTH 960 0
DWIDTH 8 0
BBX 8 15 0 -3
BITMAP
00
00
42
42
62
52
52
4a
4a
46
42
42
00
18
24
ENDCHAR
STARTCHAR LtCapTLcircum
ENCODING 861
SWIDTH 960 0
DWIDTH 8 0
BBX 8 15 0 -3
BITMAP
00
00
7f
08
08
08
08
08
08
08
08
08
00
18
24
ENDCHAR
STARTCHAR LtCapULcircum
ENCODING 862
SWIDTH 960 0
DWIDTH 8 0
BBX 8 15 0 -3
BITMAP
00
00
42
42
42
42
42
42
42
42
42
3c
00
18
24
ENDCHAR
STARTCHAR LtSmlDLcircum
ENCODING 863
SWIDTH 960 0
DWIDTH 8 0
BBX 8 15 0 -3
BITMAP
00
00
02
02
02
3a
46
42
42
42
46
3a
00
18
24
ENDCHAR
STARTCHAR LtSmlELcircum
ENCODING 864
SWIDTH 960 0
DWIDTH 8 0
BBX 8 15 0 -3
BITMAP
00
00
00
00
00
3c
42
42
7e
40
40
3c
00
18
24
ENDCHAR
STARTCHAR LtSmlLLcircum
ENCODING 865
SWIDTH 960 0
DWIDTH 8 0
BBX 8 15 0 -3
BITMAP
00
00
18
08
08
08
08
08
08
08
08
3e
00
18
24
ENDCHAR
STARTCHAR LtSmlNLcircum
ENCODING 866
SWIDTH 960 0
DWIDTH 8 0
BBX 8 15 0 -3
BITMAP
00
00
00
00
00
5c
62
42
42
42
42
42
00
18
24
ENDCHAR
STARTCHAR LtSmlTLcircum
ENCODING 867
SWIDTH 960 0
DWIDTH 8 0
BBX 8 15 0 -3
BITMAP
00
00
00
10
10
7c
10
10
10
10
12
0c
00
0c
12
ENDCHAR
STARTCHAR LtSmlULcircum
ENCODING 868
SWIDTH 960 0
DWIDTH 8 0
BBX 8 15 0 -3
BITMAP
00
00
00
00
00
42
42
42
42
42
46
3a
00
18
24
ENDCHAR
STARTCHAR LtCapHLbreve
ENCODING 869
SWIDTH 960 0
DWIDTH 8 0
BBX 8 15 0 -3
BITMAP
00
00
42
42
42
42
7e
42
42
42
42
42
00
24
18
ENDCHAR
STARTCHAR LtSmlHLbreve
ENCODING 870
SWIDTH 960 0
DWIDTH 8 0
BBX 8 15 0 -3
BITMAP
00
00
40
40
40
5c
62
42
42
42
42
42
00
24
18
ENDCHAR
STARTCHAR LtSmlILinvbreve
ENCODING 871
SWIDTH 960 0
DWIDTH 8 0
BBX 8 15 0 -3
BITMAP
00
00
08
08
00
18
08
08
08
08
08
3e
00
1c
22
ENDCHAR
STARTCHAR LtSmlOLinvbreve
ENCODING 872
SWIDTH 960 0
DWIDTH 8 0
BBX 8 15 0 -3
BITMAP
00
00
00
00
00
3c
42
42
42
42
42
3c
00
18
24
ENDCHAR
STARTCHAR LtSmlULinvbreve
ENCODING 873
SWIDTH 960 0
DWIDTH 8 0
BBX 8 15 0 -3
BITMAP
00
00
00
00
00
42
42
42
42
42
46
3a
00
18
24
ENDCHAR
STARTCHAR LtSmlATrndLinvbreve
ENCODING 874
SWIDTH 960 0
DWIDTH 8 0
BBX 8 15 0 -3
BITMAP
00
00
00
00
00
dc
62
44
78
40
44
3c
00
18
24
ENDCHAR
STARTCHAR LtCapELtilde
ENCODING 875
SWIDTH 960 0
DWIDTH 8 0
BBX 8 15 0 -3
BITMAP
00
00
7e
40
40
40
78
40
40
40
40
7e
00
32
4c
ENDCHAR
STARTCHAR LtCapILtilde
ENCODING 876
SWIDTH 960 0
DWIDTH 8 0
BBX 8 15 0 -3
BITMAP
00
00
3e
08
08
08
08
08
08
08
08
3e
00
12
2c
ENDCHAR
STARTCHAR LtCapULtilde
ENCODING 877
SWIDTH 960 0
DWIDTH 8 0
BBX 8 15 0 -3
BITMAP
00
00
42
42
42
42
42
42
42
42
42
3c
00
32
4c
ENDCHAR
STARTCHAR LtSmlELtilde
ENCODING 878
SWIDTH 960 0
DWIDTH 8 0
BBX 8 15 0 -3
BITMAP
00
00
00
00
00
3c
42
42
7e
40
40
3c
00
32
4c
ENDCHAR
STARTCHAR LtSmlILtilde
ENCODING 879
SWIDTH 960 0
DWIDTH 8 0
BBX 8 15 0 -3
BITMAP
00
00
08
08
00
18
08
08
08
08
08
3e
00
12
2c
ENDCHAR
STARTCHAR LtSmlULtilde
ENCODING 880
SWIDTH 960 0
DWIDTH 8 0
BBX 8 15 0 -3
BITMAP
00
00
00
00
00
42
42
42
42
42
46
3a
00
32
4c
ENDCHAR
STARTCHAR HbAlefPatah
ENCODING 1273
SWIDTH 960 0
DWIDTH 8 0
BBX 8 15 0 -3
BITMAP
00
00
00
00
44
42
24
34
48
44
42
62
00
3c
00
ENDCHAR
STARTCHAR HbAlefQamats
ENCODING 1275
SWIDTH 960 0
DWIDTH 8 0
BBX 8 15 0 -3
BITMAP
00
00
00
00
44
42
24
34
48
44
42
62
00
38
10
ENDCHAR
STARTCHAR GeGan
ENCODING 1306
SWIDTH 960 0
DWIDTH 8 0
BBX 8 15 0 -3
BITMAP
00
00
00
00
00
00
30
48
08
3c
42
42
42
42
3c
ENDCHAR
STARTCHAR GeDon
ENCODING 1307
SWIDTH 960 0
DWIDTH 8 0
BBX 8 15 0 -3
BITMAP
00
00
00
00
00
00
3c
42
42
42
42
3c
20
78
06
ENDCHAR
STARTCHAR GeEn
ENCODING 1308
SWIDTH 960 0
DWIDTH 8 0
BBX 8 15 0 -3
BITMAP
00
00
00
00
00
00
1c
22
22
02
02
02
42
42
3c
ENDCHAR
STARTCHAR GeVin
ENCODING 1309
SWIDTH 960 0
DWIDTH 8 0
BBX 8 15 0 -3
BITMAP
00
00
00
00
00
00
1c
22
22
02
0c
02
42
42
3c
ENDCHAR
STARTCHAR GeKan
ENCODING 1313
SWIDTH 960 0
DWIDTH 8 0
BBX 8 15 0 -3
BITMAP
00
00
00
00
00
00
02
02
02
1c
02
02
42
42
3c
ENDCHAR
STARTCHAR GeLas
ENCODING 1314
SWIDTH 960 0
DWIDTH 8 0
BBX 8 15 0 -3
BITMAP
00
00
00
00
00
00
3c
42
42
42
42
20
30
4c
02
ENDCHAR
STARTCHAR GeZhar
ENCODING 1319
SWIDTH 960 0
DWIDTH 8 0
BBX 8 15 0 -3
BITMAP
00
00
00
00
00
00
06
1a
4a
4a
32
02
22
22
1c
ENDCHAR
STARTCHAR GeTar
ENCODING 1322
SWIDTH 960 0
DWIDTH 8 0
BBX 8 15 0 -3
BITMAP
00
00
00
00
00
08
14
1c
2a
41
41
41
41
22
1c
ENDCHAR
STARTCHAR GeUn
ENCODING 1323
SWIDTH 960 0
DWIDTH 8 0
BBX 8 15 0 -3
BITMAP
00
00
00
00
00
00
4c
72
12
12
02
02
42
42
3c
ENDCHAR
STARTCHAR GePhar
ENCODING 1324
SWIDTH 960 0
DWIDTH 8 0
BBX 8 15 0 -3
BITMAP
00
00
00
00
00
00
36
49
49
49
49
32
01
11
0e
ENDCHAR
STARTCHAR GeKhar
ENCODING 1325
SWIDTH 960 0
DWIDTH 8 0
BBX 8 15 0 -3
BITMAP
00
00
02
06
02
02
02
1e
22
02
02
02
42
42
3c
ENDCHAR
STARTCHAR GeGhan
ENCODING 1326
SWIDTH 960 0
DWIDTH 8 0
BBX 8 15 0 -3
BITMAP
00
00
00
00
00
00
36
49
49
49
49
41
30
4c
02
ENDCHAR
STARTCHAR GeQar
ENCODING 1327
SWIDTH 960 0
DWIDTH 8 0
BBX 8 15 0 -3
BITMAP
00
00
00
00
00
00
42
42
42
26
1a
02
42
42
3c
ENDCHAR
STARTCHAR GeCan
ENCODING 1330
SWIDTH 960 0
DWIDTH 8 0
BBX 8 15 0 -3
BITMAP
00
00
00
00
00
00
24
42
41
41
46
41
41
22
1c
ENDCHAR
STARTCHAR GeCil
ENCODING 1332
SWIDTH 960 0
DWIDTH 8 0
BBX 8 15 0 -3
BITMAP
00
00
36
49
49
40
40
3e
22
22
14
14
08
08
08
ENDCHAR
STARTCHAR GeChar
ENCODING 1333
SWIDTH 960 0
DWIDTH 8 0
BBX 8 15 0 -3
BITMAP
00
00
10
10
08
04
04
36
4c
36
04
04
44
44
38
ENDCHAR
STARTCHAR GeWe
ENCODING 1339
SWIDTH 960 0
DWIDTH 8 0
BBX 8 15 0 -3
BITMAP
00
00
00
00
00
00
3e
22
04
08
1c
02
42
42
3c
ENDCHAR
STARTCHAR GeHar
ENCODING 1340
SWIDTH 960 0
DWIDTH 8 0
BBX 8 15 0 -3
BITMAP
00
00
08
10
10
10
0e
02
04
08
1c
02
42
42
3c
ENDCHAR
STARTCHAR GeFi
ENCODING 1342
SWIDTH 960 0
DWIDTH 8 0
BBX 8 15 0 -3
BITMAP
00
00
00
00
00
00
36
49
49
49
49
2e
08
08
30
ENDCHAR
STARTCHAR GeYn
ENCODING 1343
SWIDTH 960 0
DWIDTH 8 0
BBX 8 15 0 -3
BITMAP
00
00
00
00
00
00
3c
42
42
0c
30
40
42
42
3c
ENDCHAR
STARTCHAR GeElifi
ENCODING 1344
SWIDTH 960 0
DWIDTH 8 0
BBX 8 15 0 -3
BITMAP
00
00
00
00
00
00
42
42
42
64
58
40
42
42
3c
ENDCHAR
STARTCHAR GeUo
ENCODING 1347
SWIDTH 960 0
DWIDTH 8 0
BBX 8 15 0 -3
BITMAP
00
00
00
00
00
00
32
4e
48
48
40
40
42
42
3c
ENDCHAR
STARTCHAR GeGanTrnd
ENCODING 1350
SWIDTH 960 0
DWIDTH 8 0
BBX 8 15 0 -3
BITMAP
00
00
00
00
00
00
3c
42
42
42
42
3c
10
12
0c
ENDCHAR
STARTCHAR GeUnDrss
ENCODING 1353
SWIDTH 960 0
DWIDTH 8 0
BBX 8 15 0 -3
BITMAP
00
00
00
24
24
00
4c
72
12
12
02
02
42
42
3c
ENDCHAR
STARTCHAR GeUnCircum
ENCODING 1355
SWIDTH 960 0
DWIDTH 8 0
BBX 8 15 0 -3
BITMAP
00
00
00
18
24
00
4c
72
12
12
02
02
42
42
3c
ENDCHAR
STARTCHAR GeEnMacron
ENCODING 1357
SWIDTH 960 0
DWIDTH 8 0
BBX 8 15 0 -3
BITMAP
00
00
00
3c
00
00
1c
22
22
02
02
02
42
42
3c
ENDCHAR
STARTCHAR GeUnMacron
ENCODING 1360
SWIDTH 960 0
DWIDTH 8 0
BBX 8 15 0 -3
BITMAP
00
00
00
3c
00
00
4c
72
12
12
02
02
42
42
3c
ENDCHAR
STARTCHAR AmSmlEh
ENCODING 1407
SWIDTH 960 0
DWIDTH 8 0
BBX 8 15 0 -3
BITMAP
00
00
20
20
20
20
3e
20
20
20
20
1c
02
04
00
ENDCHAR
STARTCHAR AmSmlYi
ENCODING 1421
SWIDTH 960 0
DWIDTH 8 0
BBX 8 15 0 -3
BITMAP
00
00
00
00
00
00
18
08
08
08
08
08
08
08
70
ENDCHAR
STARTCHAR AmSmlSha
ENCODING 1423
SWIDTH 960 0
DWIDTH 8 0
BBX 8 15 0 -3
BITMAP
00
00
00
00
00
00
1c
22
02
04
08
10
20
20
1e
ENDCHAR
STARTCHAR AmSmlCha
ENCODING 1425
SWIDTH 960 0
DWIDTH 8 0
BBX 8 15 0 -3
BITMAP
00
00
00
00
00
00
08
10
08
04
08
10
20
20
1e
ENDCHAR
STARTCHAR AmSmlJheh
ENCODING 1427
SWIDTH 960 0
DWIDTH 8 0
BBX 8 15 0 -3
BITMAP
00
00
08
14
22
22
22
22
14
08
08
10
20
20
1e
ENDCHAR
STARTCHAR AmSmlCo
ENCODING 1433
SWIDTH 960 0
DWIDTH 8 0
BBX 8 15 0 -3
BITMAP
00
00
00
00
00
00
1e
22
22
22
22
1e
02
22
1c
ENDCHAR
STARTCHAR AmSmlKeh
ENCODING 1436
SWIDTH 960 0
DWIDTH 8 0
BBX 8 15 0 -3
BITMAP
00
00
00
00
00
00
3c
22
22
22
22
3c
20
7e
20
ENDCHAR
STARTCHAR GkCapIotTrndLbreve
ENCODING 1529
SWIDTH 960 0
DWIDTH 8 0
BBX 8 15 0 -3
BITMAP
00
00
3e
08
08
08
08
08
08
08
08
3e
00
22
1c
ENDCHAR
STARTCHAR GkCapUpsTrndLbreve
ENCODING 1530
SWIDTH 960 0
DWIDTH 8 0
BBX 8 15 0 -3
BITMAP
00
00
08
08
08
08
08
14
14
22
22
41
00
22
1c
ENDCHAR
STARTCHAR GkSmlIotTrndLbreve
ENCODING 1531
SWIDTH 960 0
DWIDTH 8 0
BBX 8 15 0 -3
BITMAP
00
00
00
00
00
30
48
08
08
08
08
08
00
22
1c
ENDCHAR
STARTCHAR GkSmlUpsTrndLbreve
ENCODING 1532
SWIDTH 960 0
DWIDTH 8 0
BBX 8 15 0 -3
BITMAP
00
00
00
00
00
3c
42
42
42
42
42
42
00
22
1c
ENDCHAR
STARTCHAR ThYoYing
ENCODING 1770
SWIDTH 960 0
DWIDTH 8 0
BBX 8 15 0 -3
BITMAP
00
00
00
00
00
32
4a
4a
4a
4a
4a
44
00
12
0c
ENDCHAR
STARTCHAR ThDoChada
ENCODING 1772
SWIDTH 960 0
DWIDTH 8 0
BBX 8 15 0 -3
BITMAP
00
00
00
00
00
3c
42
62
22
22
62
62
02
02
1c
ENDCHAR
STARTCHAR ThToPatak
ENCODING 1773
SWIDTH 960 0
DWIDTH 8 0
BBX 8 15 0 -3
BITMAP
00
00
00
00
00
3c
42
62
22
22
62
62
02
2a
3c
ENDCHAR
STARTCHAR ThThoThan
ENCODING 1774
SWIDTH 960 0
DWIDTH 8 0
BBX 8 15 0 -3
BITMAP
00
00
00
00
00
7e
04
02
1a
1a
06
02
00
2a
3c
ENDCHAR
STARTCHAR ThRu
ENCODING 1795
SWIDTH 960 0
DWIDTH 8 0
BBX 8 15 0 -3
BITMAP
00
00
00
00
00
3c
42
62
22
22
32
32
02
02
02
ENDCHAR
STARTCHAR ThLu
ENCODING 1797
SWIDTH 960 0
DWIDTH 8 0
BBX 8 15 0 -3
BITMAP
00
00
00
00
00
3c
42
62
22
22
62
62
02
02
02
ENDCHAR
STARTCHAR ThMaiyamok
ENCODING 1808
SWIDTH 960 0
DWIDTH 8 0
BBX 8 15 0 -3
BITMAP
00
00
00
00
00
34
4a
62
62
02
02
02
02
02
04
ENDCHAR
STARTCHAR ThLakkhangyao
ENCODING 1809
SWIDTH 960 0
DWIDTH 8 0
BBX 8 15 0 -3
BITMAP
00
00
00
00
00
1c
22
22
02
02
02
02
02
02
02
ENDCHAR
STARTCHAR ThSaraU
ENCODING 1831
SWIDTH 960 0
DWIDTH 8 0
BBX 8 15 0 -3
BITMAP
00
00
00
00
00
00
00
00
00
00
00
00
00
06
02
ENDCHAR
STARTCHAR ThSaraUu
ENCODING 1832
SWIDTH 960 0
DWIDTH 8 0
BBX 8 15 0 -3
BITMAP
00
00
00
00
00
00
00
00
00
00
00
00
00
1a
0e
ENDCHAR
STARTCHAR ThPhinthu
ENCODING 1833
SWIDTH 960 0
DWIDTH 8 0
BBX 8 15 0 -3
BITMAP
00
00
00
00
00
00
00
00
00
00
00
00
00
06
06
ENDCHAR
STARTCHAR CombHbMeteg
ENCODING 2118
SWIDTH 960 0
DWIDTH 8 0
BBX 8 15 0 -3
BITMAP
00
00
00
00
00
00
00
00
00
00
00
00
10
10
10
ENDCHAR
STARTCHAR CombHbPatah
ENCODING 2119
SWIDTH 960 0
DWIDTH 8 0
BBX 8 15 0 -3
BITMAP
00
00
00
00
00
00
00
00
00
00
00
00
00
7c
00
ENDCHAR
STARTCHAR CombHbQamats
ENCODING 2120
SWIDTH 960 0
DWIDTH 8 0
BBX 8 15 0 -3
BITMAP
00
00
00
00
00
00
00
00
00
00
00
00
00
38
10
ENDCHAR
STARTCHAR CombHbSegol
ENCODING 2121
SWIDTH 960 0
DWIDTH 8 0
BBX 8 15 0 -3
BITMAP
00
00
00
00
00
00
00
00
00
00
00
00
00
66
18
ENDCHAR
STARTCHAR CombHbHatafQamats
ENCODING 2125
SWIDTH 960 0
DWIDTH 8 0
BBX 8 15 0 -3
BITMAP
00
00
00
00
00
00
00
00
00
00
00
00
06
70
26
ENDCHAR
STARTCHAR CombLdot
ENCODING 2174
SWIDTH 960 0
DWIDTH 8 0
BBX 8 15 0 -3
BITMAP
00
00
00
00
00
00
00
00
00
00
00
00
00
08
08
ENDCHAR
STARTCHAR CombLvline
ENCODING 2175
SWIDTH 960 0
DWIDTH 8 0
BBX 8 15 0 -3
BITMAP
00
00
00
00
00
00
00
00
00
00
00
00
08
08
08
ENDCHAR
STARTCHAR CombLdrss
ENCODING 2176
SWIDTH 960 0
DWIDTH 8 0
BBX 8 15 0 -3
BITMAP
00
00
00
00
00
00
00
00
00
00
00
00
00
24
24
ENDCHAR
STARTCHAR CombLvline2
ENCODING 2177
SWIDTH 960 0
DWIDTH 8 0
BBX 8 15 0 -3
BITMAP
00
00
00
00
00
00
00
00
00
00
00
00
24
24
24
ENDCHAR
STARTCHAR CombLcircum
ENCODING 2180
SWIDTH 960 0
DWIDTH 8 0
BBX 8 15 0 -3
BITMAP
00
00
00
00
00
00
00
00
00
00
00
00
00
18
24
ENDCHAR
STARTCHAR CombLcaron
ENCODING 2181
SWIDTH 960 0
DWIDTH 8 0
BBX 8 15 0 -3
BITMAP
00
00
00
00
00
00
00
00
00
00
00
00
00
24
18
ENDCHAR
STARTCHAR CombLbreve
ENCODING 2182
SWIDTH 960 0
DWIDTH 8 0
BBX 8 15 0 -3
BITMAP
00
00
00
00
00
00
00
00
00
00
00
00
00
24
18
ENDCHAR
STARTCHAR CombLinvbreve
ENCODING 2183
SWIDTH 960 0
DWIDTH 8 0
BBX 8 15 0 -3
BITMAP
00
00
00
00
00
00
00
00
00
00
00
00
00
18
24
ENDCHAR
STARTCHAR CombLmacron
ENCODING 2184
SWIDTH 960 0
DWIDTH 8 0
BBX 8 15 0 -3
BITMAP
00
00
00
00
00
00
00
00
00
00
00
00
00
00
3c
ENDCHAR
STARTCHAR CombLtilde
ENCODING 2187
SWIDTH 960 0
DWIDTH 8 0
BBX 8 15 0 -3
BITMAP
00
00
00
00
00
00
00
00
00
00
00
00
00
32
4c
ENDCHAR
STARTCHAR MArrowU
ENCODING 2475
SWIDTH 960 0
DWIDTH 8 0
BBX 8 15 0 -3
BITMAP
00
08
1c
2a
08
08
08
08
08
08
08
08
08
08
00
ENDCHAR
STARTCHAR MArrowD
ENCODING 2476
SWIDTH 960 0
DWIDTH 8 0
BBX 8 15 0 -3
BITMAP
00
08
08
08
08
08
08
08
08
08
08
2a
1c
08
00
ENDCHAR
STARTCHAR MArrowUD
ENCODING 2477
SWIDTH 960 0
DWIDTH 8 0
BBX 8 15 0 -3
BITMAP
00
08
1c
2a
08
08
08
08
08
08
08
2a
1c
08
00
ENDCHAR
STARTCHAR MArrowUDBase
ENCODING 2478
SWIDTH 960 0
DWIDTH 8 0
BBX 8 15 0 -3
BITMAP
00
08
1c
2a
08
08
08
08
08
08
2a
1c
08
3e
00
ENDCHAR
STARTCHAR MArrowULeftD
ENCODING 2479
SWIDTH 960 0
DWIDTH 8 0
BBX 8 15 0 -3
BITMAP
00
24
74
a4
24
24
24
24
24
24
24
25
2e
24
00
ENDCHAR
STARTCHAR MArrowULeftU
ENCODING 2480
SWIDTH 960 0
DWIDTH 8 0
BBX 8 15 0 -3
BITMAP
00
24
7e
a5
24
24
24
24
24
24
24
24
24
24
00
ENDCHAR
STARTCHAR MArrowDLeftD
ENCODING 2481
SWIDTH 960 0
DWIDTH 8 0
BBX 8 15 0 -3
BITMAP
00
24
24
24
24
24
24
24
24
24
24
a5
7e
24
00
ENDCHAR
STARTCHAR MArrowUu
ENCODING 2482
SWIDTH 960 0
DWIDTH 8 0
BBX 8 15 0 -3
BITMAP
00
08
1c
2a
08
1c
2a
08
08
08
08
08
08
08
00
ENDCHAR
STARTCHAR MArrowDd
ENCODING 2483
SWIDTH 960 0
DWIDTH 8 0
BBX 8 15 0 -3
BITMAP
00
08
08
08
08
08
08
08
2a
1c
08
2a
1c
08
00
ENDCHAR
STARTCHAR MArrowBarU
ENCODING 2484
SWIDTH 960 0
DWIDTH 8 0
BBX 8 15 0 -3
BITMAP
00
08
1c
2a
08
08
08
08
08
08
08
08
08
3e
00
ENDCHAR
STARTCHAR MArrowBarD
ENCODING 2485
SWIDTH 960 0
DWIDTH 8 0
BBX 8 15 0 -3
BITMAP
00
3e
08
08
08
08
08
08
08
08
08
2a
1c
08
00
ENDCHAR
STARTCHAR MArrowLU
ENCODING 2488
SWIDTH 960 0
DWIDTH 8 0
BBX 8 15 0 -3
BITMAP
00
40
70
68
50
50
08
08
04
04
02
02
01
01
00
ENDCHAR
STARTCHAR MArrowRU
ENCODING 2489
SWIDTH 960 0
DWIDTH 8 0
BBX 8 15 0 -3
BITMAP
00
01
07
0b
05
05
08
08
10
10
20
20
40
40
00
ENDCHAR
STARTCHAR MArrowLD
ENCODING 2490
SWIDTH 960 0
DWIDTH 8 0
BBX 8 15 0 -3
BITMAP
00
01
01
02
02
04
04
08
08
50
50
68
70
40
00
ENDCHAR
STARTCHAR MArrowRD
ENCODING 2491
SWIDTH 960 0
DWIDTH 8 0
BBX 8 15 0 -3
BITMAP
00
40
40
20
20
10
10
08
08
05
05
0b
07
01
00
ENDCHAR
STARTCHAR MArrow2U
ENCODING 2500
SWIDTH 960 0
DWIDTH 8 0
BBX 8 15 0 -3
BITMAP
00
08
1c
36
55
14
14
14
14
14
14
14
14
14
00
ENDCHAR
STARTCHAR MArrow2D
ENCODING 2501
SWIDTH 960 0
DWIDTH 8 0
BBX 8 15 0 -3
BITMAP
00
14
14
14
14
14
14
14
14
14
55
36
1c
08
00
ENDCHAR
STARTCHAR MArrow2UD
ENCODING 2502
SWIDTH 960 0
DWIDTH 8 0
BBX 8 15 0 -3
BITMAP
00
08
1c
36
55
14
14
14
14
14
55
36
1c
08
00
ENDCHAR
STARTCHAR MHarpoonUl
ENCODING 2518
SWIDTH 960 0
DWIDTH 8 0
BBX 8 15 0 -3
BITMAP
00
08
18
28
08
08
08
08
08
08
08
08
08
08
00
ENDCHAR
STARTCHAR MHarpoonUr
ENCODING 2519
SWIDTH 960 0
DWIDTH 8 0
BBX 8 15 0 -3
BITMAP
00
08
0c
0a
08
08
08
08
08
08
08
08
08
08
00
ENDCHAR
STARTCHAR MHarpoonDl
ENCODING 2520
SWIDTH 960 0
DWIDTH 8 0
BBX 8 15 0 -3
BITMAP
00
08
08
08
08
08
08
08
08
08
08
28
18
08
00
ENDCHAR
STARTCHAR MHarpoonDr
ENCODING 2521
SWIDTH 960 0
DWIDTH 8 0
BBX 8 15 0 -3
BITMAP
00
08
08
08
08
08
08
08
08
08
08
0a
0c
08
00
ENDCHAR
STARTCHAR PCurlyBrackLTRB
ENCODING 2649
SWIDTH 960 0
DWIDTH 8 0
BBX 8 15 0 -3
BITMAP
03
04
08
08
08
08
08
08
08
08
08
08
08
10
60
ENDCHAR
STARTCHAR PCurlyBrackLBRT
ENCODING 2650
SWIDTH 960 0
DWIDTH 8 0
BBX 8 15 0 -3
BITMAP
60
10
08
08
08
08
08
08
08
08
08
08
08
04
03
ENDCHAR
STARTCHAR MSumT
ENCODING 2651
SWIDTH 960 0
DWIDTH 8 0
BBX 8 15 0 -3
BITMAP
00
7f
40
40
20
20
20
10
10
10
08
08
08
04
04
ENDCHAR
STARTCHAR MRootB
ENCODING 2653
SWIDTH 960 0
DWIDTH 8 0
BBX 8 15 0 -3
BITMAP
08
08
08
08
08
08
08
c8
48
28
28
18
18
08
08
ENDCHAR
ENDFONT
